<svg width="128" height="128" viewBox="0 0 128 128" xmlns="http://www.w3.org/2000/svg">
  <!-- Background circle -->
  <circle cx="64" cy="64" r="60" fill="#667eea" stroke="#764ba2" stroke-width="4"/>
  
  <!-- AI Brain icon -->
  <g fill="white">
    <!-- Main brain shape -->
    <path d="M64 25 C45 25 30 40 30 60 C30 80 45 95 64 95 C83 95 98 80 98 60 C98 40 83 25 64 25 Z M64 85 C50 85 40 75 40 60 C40 45 50 35 64 35 C78 35 88 45 88 60 C88 75 78 85 64 85 Z"/>
    
    <!-- Neural connections -->
    <circle cx="45" cy="45" r="3"/>
    <circle cx="83" cy="45" r="3"/>
    <circle cx="45" cy="75" r="3"/>
    <circle cx="83" cy="75" r="3"/>
    <circle cx="64" cy="35" r="3"/>
    <circle cx="64" cy="85" r="3"/>
    
    <!-- Connection lines -->
    <path d="M45 45 L64 35 L83 45" stroke="white" stroke-width="2" fill="none"/>
    <path d="M45 75 L64 85 L83 75" stroke="white" stroke-width="2" fill="none"/>
    <path d="M45 45 L45 75" stroke="white" stroke-width="2" fill="none"/>
    <path d="M83 45 L83 75" stroke="white" stroke-width="2" fill="none"/>
  </g>
  
  <!-- Review stars -->
  <g fill="#FFD700">
    <polygon points="25,100 30,105 35,100 32,95 28,95"/>
    <polygon points="40,100 45,105 50,100 47,95 43,95"/>
    <polygon points="55,100 60,105 65,100 62,95 58,95"/>
    <polygon points="70,100 75,105 80,100 77,95 73,95"/>
    <polygon points="85,100 90,105 95,100 92,95 88,95"/>
  </g>
</svg>
